<svg width="100%" height="260" viewBox="0 0 1200 260" xmlns="http://www.w3.org/2000/svg">
  <defs>
    <linearGradient id="bgGrad" x1="0%" y1="0%" x2="100%" y2="100%">
      <stop offset="0%" stop-color="#0F2027"/>
      <stop offset="50%" stop-color="#2C5364"/>
      <stop offset="100%" stop-color="#00C6FF"/>
    </linearGradient>
    <linearGradient id="textGlow" x1="0%" y1="0%" x2="100%" y2="0%">
      <stop offset="0%" stop-color="#ffffff"/>
      <stop offset="100%" stop-color="#9be8ff"/>
    </linearGradient>
  </defs>

  <rect width="1200" height="260" fill="url(#bgGrad)"/>

  <circle cx="150" cy="60" r="90" fill="#00C6FF" opacity="0.08"/>
  <circle cx="1080" cy="200" r="120" fill="#ffffff" opacity="0.05"/>

  <path d="M0,190 C300,150 500,230 800,190 C950,170 1100,210 1200,185 L1200,260 L0,260 Z" fill="#0D1117" opacity="0.45"/>
  <path d="M0,215 C280,190 520,250 820,210 C980,190 1100,230 1200,205 L1200,260 L0,260 Z" fill="#0D1117" opacity="0.65"/>

  <text x="600" y="118" text-anchor="middle" font-family="Verdana, Geneva, sans-serif" font-size="58" font-weight="700" fill="url(#textGlow)" letter-spacing="6">DIMAS MARIO</text>
  <text x="600" y="160" text-anchor="middle" font-family="Verdana, Geneva, sans-serif" font-size="24" font-weight="400" fill="#8FE3FF" letter-spacing="2">Cloud &amp; DevOps Engineer</text>

  <line x1="500" y1="180" x2="700" y2="180" stroke="#00C6FF" stroke-width="2" opacity="0.6"/>
</svg>
